<svg xmlns="http://www.w3.org/2000/svg" xmlns:xlink="http://www.w3.org/1999/xlink" width="81" height="81" version="1.1" viewBox="0 0 81 81"><title>Scald</title><desc>Created with Sketch.</desc><g id="Page-1" fill="none" fill-rule="evenodd" stroke="none" stroke-width="1"><g id="Scald"><g id="烫伤-copy-2" transform="translate(3.000000, 1.000000)"><path id="Path-9" stroke="#23454D" stroke-width="3" d="M38.975751,1.36500834 C38.3317262,0.47939759 37.2810484,0.477857839 36.6278973,1.38596351 C36.6278973,1.38596351 15.5370909,29.1959154 15.5370909,52.238459 C15.5370909,75.2810026 34.8749908,77.3364401 34.8749908,77.3364401 C36.4957533,77.681384 39.1361901,77.7248842 40.744291,77.3339945 C40.744291,77.3339945 60.082191,75.2606197 60.082191,52.238459 C60.082191,29.2162983 38.975751,1.36500834 38.975751,1.36500834 Z"/><path id="Path-9" stroke="#23454D" stroke-width="3" d="M38.497562,35.496075 C37.9343562,34.5502066 37.0106454,34.5489122 36.4580135,35.4969706 C36.4580135,35.4969706 29.2286951,46.736991 29.2286951,57.3125143 C29.2286951,67.8880377 36.9559832,70.6267871 36.9559832,70.6267871 C37.457338,70.8576181 38.2645096,70.8572197 38.7504806,70.5930611 C38.7504806,70.5930611 45.7268803,67.8959623 45.7268803,57.3125143 C45.7268803,46.7290664 38.497562,35.496075 38.497562,35.496075 Z"/><g id="网点2-copy" fill="#23454D" transform="translate(39.699743, 42.752450) rotate(-315.000000) translate(-39.699743, -42.752450) translate(11.699743, 14.752450)"><ellipse id="Oval-3-Copy-38" cx="27.917" cy="53.997" rx="1.5" ry="1.5"/><ellipse id="Oval-3-Copy-38" cx="14.719" cy="40.878" rx="1.5" ry="1.5"/><circle id="Oval-3-Copy-51" cx="27.917" cy="47.437" r="1.5"/><ellipse id="Oval-3-Copy-48" cx="21.318" cy="40.878" rx="1.5" ry="1.5"/><ellipse id="Oval-3-Copy-52" cx="21.318" cy="47.437" rx="1.5" ry="1.5"/><circle id="Oval-3-Copy-38" cx="14.719" cy="27.758" r="1.5"/><ellipse id="Oval-3-Copy-51" cx="14.719" cy="34.318" rx="1.5" ry="1.5"/><circle id="Oval-3-Copy-48" cx="8.119" cy="27.758" r="1.5"/><ellipse id="Oval-3-Copy-52" cx="8.119" cy="34.318" rx="1.5" ry="1.5"/><circle id="Oval-3-Copy-52" cx="21.318" cy="34.318" r="1.5"/><ellipse id="Oval-3-Copy-38" cx="41.116" cy="53.997" rx="1.5" ry="1.5"/><ellipse id="Oval-3-Copy-48" cx="34.516" cy="53.997" rx="1.5" ry="1.5"/><ellipse id="Oval-3-Copy-48" cx="47.715" cy="53.997" rx="1.5" ry="1.5"/><ellipse id="Oval-3-Copy-38" cx="54.314" cy="40.878" rx="1.5" ry="1.5"/><ellipse id="Oval-3-Copy-51" cx="54.314" cy="47.437" rx="1.5" ry="1.5"/><circle id="Oval-3-Copy-48" cx="47.715" cy="40.878" r="1.5"/><circle id="Oval-3-Copy-52" cx="48.422" cy="46.73" r="1.5"/><ellipse id="Oval-3-Copy-38" cx="41.116" cy="27.758" rx="1.5" ry="1.5"/><ellipse id="Oval-3-Copy-48" cx="34.516" cy="27.758" rx="1.5" ry="1.5"/><ellipse id="Oval-3-Copy-51" cx="54.314" cy="34.318" rx="1.5" ry="1.5"/><ellipse id="Oval-3-Copy-48" cx="47.715" cy="27.758" rx="1.5" ry="1.5"/><ellipse id="Oval-3-Copy-52" cx="47.715" cy="34.318" rx="1.5" ry="1.5"/><ellipse id="Oval-3-Copy-38" cx="1.52" cy="14.639" rx="1.5" ry="1.5"/><circle id="Oval-3-Copy-51" cx="1.52" cy="21.199" r="1.5"/><circle id="Oval-3-Copy-38" cx="1.5" cy="1.5" r="1.5"/><circle id="Oval-3-Copy-58" cx="8.099" cy="1.5" r="1.5"/><circle id="Oval-3-Copy-51" cx="1.52" cy="8.08" r="1.5"/><ellipse id="Oval-3-Copy-38" cx="14.719" cy="14.639" rx="1.5" ry="1.5"/><circle id="Oval-3-Copy-51" cx="14.719" cy="21.199" r="1.5"/><ellipse id="Oval-3-Copy-48" cx="8.119" cy="14.639" rx="1.5" ry="1.5"/><ellipse id="Oval-3-Copy-52" cx="8.119" cy="21.199" rx="1.5" ry="1.5"/><circle id="Oval-3-Copy-38" cx="27.917" cy="14.639" r="1.5"/><ellipse id="Oval-3-Copy-51" cx="27.917" cy="21.199" rx="1.5" ry="1.5"/><ellipse id="Oval-3-Copy-48" cx="21.318" cy="14.639" rx="1.5" ry="1.5"/><ellipse id="Oval-3-Copy-52" cx="21.318" cy="21.199" rx="1.5" ry="1.5"/><ellipse id="Oval-3-Copy-51" cx="14.719" cy="8.08" rx="1.5" ry="1.5"/><circle id="Oval-3-Copy-52" cx="8.119" cy="8.08" r="1.5"/><ellipse id="Oval-3-Copy-52" cx="21.318" cy="8.08" rx="1.5" ry="1.5"/><circle id="Oval-3-Copy-51" cx="41.116" cy="21.199" r="1.5"/><circle id="Oval-3-Copy-48" cx="34.516" cy="14.639" r="1.5"/><circle id="Oval-3-Copy-52" cx="34.516" cy="21.199" r="1.5"/><ellipse id="Oval-3-Copy-52" cx="47.715" cy="21.199" rx="1.5" ry="1.5"/></g></g></g></g></svg>